<?xml version="1.0" encoding="utf-8"?>
<!-- Generator: Adobe Illustrator 16.2.1, SVG Export Plug-In . SVG Version: 6.00 Build 0)  -->
<!DOCTYPE svg PUBLIC "-//W3C//DTD SVG 1.1//EN" "http://www.w3.org/Graphics/SVG/1.1/DTD/svg11.dtd">
<svg version="1.1" id="Layer_1" xmlns="http://www.w3.org/2000/svg" xmlns:xlink="http://www.w3.org/1999/xlink" x="0px" y="0px"
	 width="40px" height="40px" viewBox="0 0 40 40" enable-background="new 0 0 40 40" xml:space="preserve">
<g>
	<path d="M19.446,2C9.526,2,1.484,10.042,1.484,19.962c0,9.921,8.042,17.963,17.962,17.963s17.962-8.042,17.962-17.962
		C37.408,10.042,29.366,2,19.446,2z M17.787,15.167c-2.32,0-3.196,1.599-3.196,5.001l-0.098,0.026h2.15
		c0.627,0,1.141,0.514,1.141,1.143v6.641c0,0.627-0.514,1.142-1.141,1.142h-5.771c-0.629,0-1.143-0.515-1.143-1.142v-6.641
		c0-0.06,0.009-0.116,0.018-0.173c0.039-5.04,1.162-9.614,8.041-10.018V15.167z M29.112,15.167c-2.321,0-3.198,1.599-3.198,5.001
		l-0.097,0.026h2.149c0.628,0,1.142,0.515,1.142,1.143v6.641c0,0.628-0.514,1.142-1.142,1.142h-5.771
		c-0.629,0-1.143-0.515-1.143-1.142v-6.641c0-0.06,0.01-0.116,0.019-0.173c0.038-5.04,1.161-9.614,8.041-10.018V15.167z"/>
</g>
</svg>
