<?xml version="1.0" encoding="utf-8"?>
<!-- Generator: Adobe Illustrator 16.1.0, SVG Export Plug-In . SVG Version: 6.00 Build 0)  -->
<!DOCTYPE svg PUBLIC "-//W3C//DTD SVG 1.1//EN" "http://www.w3.org/Graphics/SVG/1.1/DTD/svg11.dtd">
<svg version="1.1" id="Layer_1" xmlns="http://www.w3.org/2000/svg" xmlns:xlink="http://www.w3.org/1999/xlink" x="0px" y="0px"
	 width="40px" height="40px" viewBox="0 0 40 40" enable-background="new 0 0 40 40" xml:space="preserve">
<path fill="#010101" d="M33.828,11.697H6.173c-1.007,0-1.823-0.816-1.823-1.822c0-1.007,0.816-1.823,1.823-1.823h27.655
	c1.006,0,1.822,0.816,1.822,1.823C35.65,10.881,34.834,11.697,33.828,11.697z"/>
<path fill="#010101" d="M33.828,21.824H6.173c-1.007,0-1.823-0.816-1.823-1.822c0-1.007,0.816-1.822,1.823-1.822h27.655
	c1.006,0,1.822,0.815,1.822,1.822C35.65,21.008,34.834,21.824,33.828,21.824z"/>
<path fill="#010101" d="M33.828,31.947H6.173c-1.007,0-1.823-0.816-1.823-1.822s0.816-1.822,1.823-1.822h27.655
	c1.006,0,1.822,0.816,1.822,1.822S34.834,31.947,33.828,31.947z"/>
</svg>
