<?xml version="1.0" encoding="utf-8"?>
<!-- Generator: Adobe Illustrator 16.2.1, SVG Export Plug-In . SVG Version: 6.00 Build 0)  -->
<!DOCTYPE svg PUBLIC "-//W3C//DTD SVG 1.1//EN" "http://www.w3.org/Graphics/SVG/1.1/DTD/svg11.dtd">
<svg version="1.1" id="Layer_1" xmlns="http://www.w3.org/2000/svg" xmlns:xlink="http://www.w3.org/1999/xlink" x="0px" y="0px"
	 width="40px" height="40px" viewBox="0 0 40 40" enable-background="new 0 0 40 40" xml:space="preserve">
<g>
	<path fill="#231F20" d="M36.447,10.162L12.291,10.16c-0.577,0-1.414,0.303-1.857,0.672l-7.127,5.937
		c-0.443,0.37-0.808,1.146-0.807,1.724l0.001,2.981c0,0.577,0.362,1.354,0.805,1.723l7.132,5.968
		c0.443,0.372,1.278,0.674,1.855,0.675l24.156,0.001c0.577,0,1.05-0.472,1.051-1.051l-0.002-17.576
		C37.498,10.635,37.024,10.162,36.447,10.162z M10.236,20.027c0.002,1.26-1.019,2.278-2.277,2.277
		c-1.258,0.001-2.279-1.019-2.279-2.277c0-1.258,1.021-2.277,2.279-2.277C9.218,17.75,10.237,18.771,10.236,20.027z"/>
</g>
</svg>
